<?xml version="1.0" encoding="UTF-8" standalone="no"?>
<!-- Created with Inkscape (http://www.inkscape.org/) -->

<svg
   xmlns:dc="http://purl.org/dc/elements/1.1/"
   xmlns:cc="http://creativecommons.org/ns#"
   xmlns:rdf="http://www.w3.org/1999/02/22-rdf-syntax-ns#"
   xmlns:svg="http://www.w3.org/2000/svg"
   xmlns="http://www.w3.org/2000/svg"
   xmlns:sodipodi="http://sodipodi.sourceforge.net/DTD/sodipodi-0.dtd"
   xmlns:inkscape="http://www.inkscape.org/namespaces/inkscape"
   width="300"
   height="300"
   id="svg2"
   version="1.1"
   inkscape:version="0.48.4 r9939"
   sodipodi:docname="nav_back.svg">
  <defs
     id="defs4" />
  <sodipodi:namedview
     id="base"
     pagecolor="#ffffff"
     bordercolor="#666666"
     borderopacity="1.0"
     inkscape:pageopacity="0.0"
     inkscape:pageshadow="2"
     inkscape:zoom="2"
     inkscape:cx="133.85712"
     inkscape:cy="185.92955"
     inkscape:document-units="px"
     inkscape:current-layer="layer1"
     showgrid="false"
     inkscape:window-width="1920"
     inkscape:window-height="1030"
     inkscape:window-x="0"
     inkscape:window-y="0"
     inkscape:window-maximized="1"
     inkscape:snap-object-midpoints="false"
     inkscape:snap-smooth-nodes="false"
     inkscape:object-paths="false"
     inkscape:snap-midpoints="true"
     inkscape:snap-intersection-paths="true"
     inkscape:object-nodes="true"
     inkscape:snap-center="false"
     inkscape:snap-nodes="true"
     showguides="true"
     inkscape:guide-bbox="true" />
  <metadata
     id="metadata7">
    <rdf:RDF>
      <cc:Work
         rdf:about="">
        <dc:format>image/svg+xml</dc:format>
        <dc:type
           rdf:resource="http://purl.org/dc/dcmitype/StillImage" />
        <dc:title></dc:title>
      </cc:Work>
    </rdf:RDF>
  </metadata>
  <g
     inkscape:label="Layer 1"
     inkscape:groupmode="layer"
     id="layer1"
     transform="translate(0,-752.36218)">
    <g
       id="g8016">
      <rect
         y="752.36218"
         x="0"
         height="300"
         width="300"
         id="rect11308"
         style="fill:#000000;fill-opacity:1;stroke:none" />
      <g
         id="g7454">
        <g
           style="font-size:10px;font-style:normal;font-variant:normal;font-weight:normal;font-stretch:normal;line-height:125%;letter-spacing:0px;word-spacing:0px;fill:#ffffff;fill-opacity:1;stroke:none;font-family:DejaVu Sans;-inkscape-font-specification:DejaVu Sans"
           id="text4220-18">
          <path
             d="m 179.40482,945.54913 0,-0.89648 1.72265,0 0,-6.35156 -1.52344,1.33007 0,-0.99609 1.59961,-1.3418 0.79688,0 0,7.35938 1.64648,0 0,0.89648 -4.24218,0"
             style="font-size:12px;font-stretch:condensed;text-align:center;text-anchor:middle;font-family:Liberation Sans Narrow;-inkscape-font-specification:Liberation Sans Narrow Condensed;fill:#ffffff"
             id="path7450" />
          <path
             d="m 189.22513,941.41827 c -1e-5,0.79298 -0.0625,1.46094 -0.1875,2.00391 -0.1211,0.53906 -0.28907,0.97656 -0.50391,1.3125 -0.21094,0.33203 -0.46094,0.57031 -0.75,0.71484 -0.28516,0.14454 -0.5918,0.2168 -0.91992,0.2168 -0.32813,0 -0.63477,-0.0723 -0.91992,-0.2168 -0.28516,-0.14453 -0.53321,-0.38281 -0.74414,-0.71484 -0.21094,-0.33203 -0.37696,-0.76758 -0.49805,-1.30664 -0.11719,-0.54297 -0.17578,-1.21289 -0.17578,-2.00977 0,-0.83202 0.0586,-1.51952 0.17578,-2.0625 0.12109,-0.54686 0.28711,-0.98241 0.49805,-1.30664 0.21093,-0.32421 0.46093,-0.55077 0.75,-0.67968 0.28906,-0.13281 0.60351,-0.19921 0.94336,-0.19922 0.32421,1e-5 0.62695,0.0664 0.9082,0.19922 0.28515,0.12891 0.5332,0.35547 0.74414,0.67968 0.21093,0.32423 0.37695,0.75978 0.49805,1.30664 0.12109,0.54298 0.18163,1.23048 0.18164,2.0625 m -0.87891,0 c 0,-0.65624 -0.0312,-1.20116 -0.0937,-1.63476 -0.0625,-0.4375 -0.15625,-0.78515 -0.28125,-1.04297 -0.125,-0.26171 -0.2793,-0.44531 -0.46289,-0.55078 -0.17969,-0.10937 -0.38477,-0.16406 -0.61523,-0.16406 -0.24219,0 -0.45704,0.0547 -0.64453,0.16406 -0.18751,0.10938 -0.34376,0.29493 -0.46875,0.55664 -0.12501,0.25782 -0.22071,0.60547 -0.28711,1.04297 -0.0625,0.4336 -0.0937,0.97656 -0.0937,1.6289 0,0.63282 0.0312,1.16602 0.0937,1.59961 0.0664,0.4336 0.1621,0.78321 0.28711,1.04883 0.1289,0.26172 0.28515,0.45117 0.46875,0.56836 0.18359,0.11328 0.39257,0.16992 0.62695,0.16992 0.22656,0 0.42968,-0.0566 0.60937,-0.16992 0.18359,-0.11719 0.33789,-0.30664 0.46289,-0.56836 0.12891,-0.26562 0.22656,-0.61523 0.29297,-1.04883 0.0703,-0.43359 0.10547,-0.96679 0.10547,-1.59961"
             style="font-size:12px;font-stretch:condensed;text-align:center;text-anchor:middle;font-family:Liberation Sans Narrow;-inkscape-font-specification:Liberation Sans Narrow Condensed;fill:#ffffff"
             id="path7452" />
        </g>
        <path
           style="fill:#ffffff;fill-opacity:1;stroke:none"
           d="M 150 97.5 C 148.47991 97.5 146.9598 97.554315 145.4375 97.6875 L 145.53125 98.71875 C 147.00835 98.59141 148.4899 98.5 150 98.5 C 151.51 98.5 152.99175 98.5914 154.46875 98.71875 L 154.5625 97.6875 C 153.04015 97.554315 151.52009 97.5 150 97.5 z M 136.40625 99.28125 C 133.45415 100.07227 130.58242 101.11462 127.8125 102.40625 L 128.25 103.34375 C 130.94132 102.0865 133.73605 101.03113 136.65625 100.25 L 136.40625 99.28125 z M 163.59375 99.28125 L 163.34375 100.25 C 166.26405 101.03113 169.0587 102.0865 171.75 103.34375 L 172.1875 102.40625 C 169.4176 101.11462 166.54595 100.07227 163.59375 99.28125 z M 119.875 107 C 117.37145 108.753 115.03611 110.71389 112.875 112.875 L 113.59375 113.59375 C 115.70256 111.48494 117.99021 109.53165 120.4375 107.8125 L 119.875 107 z M 180.125 107 L 179.5625 107.8125 C 182.0098 109.53165 184.29745 111.48494 186.40625 113.59375 L 187.125 112.875 C 184.9639 110.71389 182.6285 108.753 180.125 107 z M 107 119.875 C 105.247 122.37855 103.69788 125.04258 102.40625 127.8125 L 103.34375 128.25 C 104.62319 125.51123 106.09095 122.88821 107.8125 120.4375 L 107 119.875 z M 193 119.875 L 192.1875 120.4375 C 193.909 122.88821 195.37685 125.51123 196.65625 128.25 L 197.59375 127.8125 C 196.30215 125.04258 194.753 122.37855 193 119.875 z M 99.28125 136.40625 C 98.49023 139.35838 97.95387 142.39286 97.6875 145.4375 L 98.71875 145.53125 C 98.98053 142.49473 99.48421 139.51913 100.25 136.65625 L 99.28125 136.40625 z M 200.71875 136.40625 L 199.75 136.65625 C 200.5158 139.51913 201.01955 142.49473 201.28125 145.53125 L 202.3125 145.4375 C 202.0461 142.39286 201.50975 139.35838 200.71875 136.40625 z M 98.71875 154.46875 L 97.6875 154.5625 C 97.95387 157.60714 98.49023 160.64162 99.28125 163.59375 L 100.25 163.34375 C 99.48421 160.48087 98.98053 157.50527 98.71875 154.46875 z M 201.28125 154.46875 C 201.01955 157.50527 200.5158 160.48087 199.75 163.34375 L 200.71875 163.59375 C 201.50975 160.64162 202.0461 157.60714 202.3125 154.5625 L 201.28125 154.46875 z M 103.34375 171.75 L 102.40625 172.1875 C 103.69788 174.95742 105.247 177.62145 107 180.125 L 107.8125 179.5625 C 106.09095 177.11179 104.62319 174.48877 103.34375 171.75 z M 196.65625 171.75 C 195.37685 174.48877 193.909 177.11179 192.1875 179.5625 L 193 180.125 C 194.753 177.62145 196.30215 174.95742 197.59375 172.1875 L 196.65625 171.75 z M 113.59375 186.40625 L 112.875 187.125 C 115.03611 189.28611 117.37145 191.247 119.875 193 L 120.4375 192.1875 C 117.99021 190.46835 115.70256 188.51506 113.59375 186.40625 z M 128.25 196.65625 L 127.8125 197.59375 C 130.58242 198.88538 133.45415 199.92773 136.40625 200.71875 L 136.65625 199.75 C 133.73605 198.96887 130.94132 197.9135 128.25 196.65625 z M 171.75 196.65625 C 169.0587 197.9135 166.26405 198.96887 163.34375 199.75 L 163.59375 200.71875 C 166.54595 199.92773 169.4176 198.88538 172.1875 197.59375 L 171.75 196.65625 z M 145.53125 201.28125 L 145.4375 202.3125 C 148.4821 202.57887 151.5178 202.57887 154.5625 202.3125 L 154.46875 201.28125 C 152.99175 201.40859 151.51 201.5 150 201.5 C 148.4899 201.5 147.00835 201.4086 145.53125 201.28125 z "
           transform="translate(0,752.36218)"
           id="path5165-8" />
      </g>
    </g>
    <path
       style="fill:#000000;fill-opacity:1;stroke:none"
       d="m -1.25e-6,752.36218 0,300.00002 300.00000125,0 0,-300.00002 -300.00000125,0 z M 150,797.36218 c 57.9899,0 105,47.0101 105,105 0,57.9899 -47.0101,105.00002 -105,105.00002 -57.989902,0 -105.000002,-47.01012 -105.000002,-105.00002 0,-57.9899 47.0101,-105 105.000002,-105 z"
       id="rect11308-1"
       inkscape:connector-curvature="0" />
  </g>
</svg>
