<?xml version="1.0" encoding="UTF-8" standalone="no"?>
<!-- Created with Inkscape (http://www.inkscape.org/) -->

<svg
   xmlns:dc="http://purl.org/dc/elements/1.1/"
   xmlns:cc="http://creativecommons.org/ns#"
   xmlns:rdf="http://www.w3.org/1999/02/22-rdf-syntax-ns#"
   xmlns:svg="http://www.w3.org/2000/svg"
   xmlns="http://www.w3.org/2000/svg"
   xmlns:sodipodi="http://sodipodi.sourceforge.net/DTD/sodipodi-0.dtd"
   xmlns:inkscape="http://www.inkscape.org/namespaces/inkscape"
   width="300"
   height="300"
   id="svg2"
   version="1.1"
   inkscape:version="0.48.4 r9939"
   sodipodi:docname="pfd_mask.svg">
  <defs
     id="defs4" />
  <sodipodi:namedview
     id="base"
     pagecolor="#ffffff"
     bordercolor="#666666"
     borderopacity="1.0"
     inkscape:pageopacity="0.0"
     inkscape:pageshadow="2"
     inkscape:zoom="0.70710675"
     inkscape:cx="-182.1291"
     inkscape:cy="46.459097"
     inkscape:document-units="px"
     inkscape:current-layer="layer1"
     showgrid="false"
     inkscape:window-width="1920"
     inkscape:window-height="1030"
     inkscape:window-x="0"
     inkscape:window-y="0"
     inkscape:window-maximized="1"
     inkscape:snap-object-midpoints="true"
     inkscape:snap-smooth-nodes="false"
     inkscape:object-paths="false"
     inkscape:snap-midpoints="true"
     inkscape:snap-intersection-paths="true"
     inkscape:object-nodes="true"
     inkscape:snap-center="true"
     inkscape:snap-nodes="true"
     showguides="true"
     inkscape:guide-bbox="true" />
  <metadata
     id="metadata7">
    <rdf:RDF>
      <cc:Work
         rdf:about="">
        <dc:format>image/svg+xml</dc:format>
        <dc:type
           rdf:resource="http://purl.org/dc/dcmitype/StillImage" />
        <dc:title></dc:title>
      </cc:Work>
    </rdf:RDF>
  </metadata>
  <g
     inkscape:label="Layer 1"
     inkscape:groupmode="layer"
     id="layer1"
     transform="translate(0,-752.36218)">
    <path
       style="fill:#000000;fill-opacity:1;stroke:none"
       d="m 0,752.36218 0,209.8125 0,90.18752 75,0 150,0 75,0 0,-90.18752 0,-209.8125 -300,0 z m 25,37.5 36,0 0,172.3125 -36,0 0,-172.3125 z m 206,0 40,0 0,172.3125 -40,0 0,-172.3125 z m -156,12.5 15,0 120,0 15,0 0,15 0,120 0,24.8125 -30,0 -90,0 -30,0 0,-24.8125 0,-120 0,-15 z m 200,0 10,0 4.5,0 4.5,25 0,8.5625 0,82.875 0,8.5625 -4.5,25 -4.5,0 -10,0 0,-150 z m -125,184 c 28.93164,0 55.25025,11.08221 75,29.21872 l 0,8.2813 c 5.4818,5.5915 10.33996,11.7998 14.46875,18.5 l -14.46875,0 -150,0 -14.4375,0 c 4.12104,-6.6876 8.97073,-12.8855 14.4375,-18.4687 l 0,-8.3126 c 19.74975,-18.13651 46.06836,-29.21872 75,-29.21872 z"
       id="rect11308-0-8-0"
       inkscape:connector-curvature="0" />
  </g>
</svg>
