<?xml version="1.0" encoding="UTF-8" standalone="no"?>
<!-- Created with Inkscape (http://www.inkscape.org/) -->

<svg
   xmlns:dc="http://purl.org/dc/elements/1.1/"
   xmlns:cc="http://creativecommons.org/ns#"
   xmlns:rdf="http://www.w3.org/1999/02/22-rdf-syntax-ns#"
   xmlns:svg="http://www.w3.org/2000/svg"
   xmlns="http://www.w3.org/2000/svg"
   xmlns:sodipodi="http://sodipodi.sourceforge.net/DTD/sodipodi-0.dtd"
   xmlns:inkscape="http://www.inkscape.org/namespaces/inkscape"
   width="5"
   height="300"
   id="svg2"
   version="1.1"
   inkscape:version="0.48.4 r9939"
   sodipodi:docname="pfd_asi_scale.svg">
  <defs
     id="defs4" />
  <sodipodi:namedview
     id="base"
     pagecolor="#ffffff"
     bordercolor="#666666"
     borderopacity="1.0"
     inkscape:pageopacity="0.0"
     inkscape:pageshadow="2"
     inkscape:zoom="1.9999999"
     inkscape:cx="27.058205"
     inkscape:cy="211.68984"
     inkscape:document-units="px"
     inkscape:current-layer="layer1"
     showgrid="false"
     inkscape:window-width="1920"
     inkscape:window-height="1011"
     inkscape:window-x="-4"
     inkscape:window-y="-6"
     inkscape:window-maximized="1"
     inkscape:snap-object-midpoints="false"
     inkscape:snap-smooth-nodes="false"
     inkscape:object-paths="false"
     inkscape:snap-midpoints="true"
     inkscape:snap-intersection-paths="true"
     inkscape:object-nodes="true"
     inkscape:snap-center="false"
     inkscape:snap-nodes="true"
     showguides="true"
     inkscape:guide-bbox="true" />
  <metadata
     id="metadata7">
    <rdf:RDF>
      <cc:Work
         rdf:about="">
        <dc:format>image/svg+xml</dc:format>
        <dc:type
           rdf:resource="http://purl.org/dc/dcmitype/StillImage" />
        <dc:title />
      </cc:Work>
    </rdf:RDF>
  </metadata>
  <g
     inkscape:label="Layer 1"
     inkscape:groupmode="layer"
     id="layer1"
     transform="translate(0,-752.36218)">
    <path
       style="fill:#ffffff;fill-opacity:1;stroke:none"
       d="m 0,766.36214 0,1 5,0 0,-1 -5,0 z m 0,15 0,1 5,0 0,-1 -5,0 z m 0,15 0,1 5,0 0,-1 -5,0 z m 0,15 0,1 5,0 0,-1 -5,0 z m 0,15 0,1 5,0 0,-1 -5,0 z m 0,15 0,1 5,0 0,-1 -5,0 z m 0,15 0,1 5,0 0,-1 -5,0 z m 0,15 0,1 5,0 0,-1 -5,0 z m 0,15 0,1 5,0 0,-1 -5,0 z m 0,15 0,1 5,0 0,-1 -5,0 z m 0,15 0,1 5,0 0,-1 -5,0 z m 0,15 0,1 5,0 0,-1 -5,0 z m 0,15 0,1 5,0 0,-1 -5,0 z m 0,15 0,1 5,0 0,-1 -5,0 z m 0,15 0,1 5,0 0,-1 -5,0 z m 0,15 0,1 5,0 0,-1 -5,0 z m 0,15.00006 0,1 5,0 0,-1 -5,0 z m 0,15 0,1 5,0 0,-1 -5,0 z m 0,15 0,1 5,0 0,-1 -5,0 z m 0,15 0,1 5,0 0,-1 -5,0 z"
       id="rect13753-40"
       inkscape:connector-curvature="0" />
  </g>
</svg>
